# xmcd
#
# Track frame offsets:
# 150
# 18147
# 30600
# 39965
# 56235
# 71475
# 83675
# 92582
# 101307
# 106937
# 116087
# 121460
# 130142
# 138472
# 150147
# 161487
# 171067
#
# Disc length: 2422 seconds
#
#
# Revision: 0
# Processed by: cddbd v1.5PL3 Copyright (c) Steve Scherf et al.
# Submitted via: FreeRIP 2.53 
#
DISCID=ca097411
DTITLE=Karin Liungman - Det är hårt å va hund
DYEAR=1981
DGENRE=Blues
TTITLE0=Det är hårt å va hund
TTITLE1=Balders pratblues
TTITLE2=Friggavalsen
TTITLE3=Jyckarnas fredsvals
TTITLE4=En gammal sliten matta
TTITLE5=I hundarnas drömmarnas land
TTITLE6=Okänd gran
TTITLE7=Grymta på!
TTITLE8=I grisarnas land
TTITLE9=Glad som en pelikan
TTITLE10=Lilla skräpvalsen
TTITLE11=Fjädermott
TTITLE12=Å herredumin stare
TTITLE13=Dum som en gås
TTITLE14=Höktango
TTITLE15=Här är vi
TTITLE16=Slå ihjäl älgar?
EXTD=
EXTT0=
EXTT1=
EXTT2=
EXTT3=
EXTT4=
EXTT5=
EXTT6=
EXTT7=
EXTT8=
EXTT9=
EXTT10=
EXTT11=
EXTT12=
EXTT13=
EXTT14=
EXTT15=
EXTT16=
PLAYORDER=
